<svg width="38" height="38" viewBox="0 0 38 38" fill="none" xmlns="http://www.w3.org/2000/svg">
<path d="M26.2485 9.00684L29.0002 11.7487L26.2485 14.4906" stroke="#94C4F5" stroke-width="3" stroke-linecap="round" stroke-linejoin="round"/>
<path d="M29 11.7488H25.3312C24.213 11.7439 23.1137 12.036 22.1464 12.595C21.1791 13.154 20.3788 13.9598 19.8279 14.9294L16.159 21.3637C15.6081 22.3333 14.8078 23.1391 13.8405 23.6981C12.8733 24.2571 11.7739 24.5492 10.6558 24.5442" stroke="#94C4F5" stroke-width="3" stroke-linecap="round" stroke-linejoin="round"/>
<path d="M26.2485 29.1136L29.0002 26.3718L26.2485 23.6299" stroke="#94C4F5" stroke-width="3" stroke-linecap="round" stroke-linejoin="round"/>
<path d="M10.6558 13.5767C11.7739 13.5718 12.8733 13.8639 13.8405 14.4229C14.8078 14.9819 15.6081 15.7877 16.159 16.7573L19.8279 23.1915C20.3788 24.1611 21.1791 24.9669 22.1464 25.526C23.1137 26.085 24.213 26.3771 25.3312 26.3721H29" stroke="#94C4F5" stroke-width="3" stroke-linecap="round" stroke-linejoin="round"/>
<path d="M2 8.03351V29.68C2 31.8448 2 32.9272 2.40789 33.7598C2.79843 34.5569 3.44306 35.2016 4.24024 35.5921C5.07285 36 6.15523 36 8.32 36H29.68C31.8448 36 32.9272 36 33.7598 35.5921C34.5569 35.2016 35.2016 34.5569 35.5921 33.7598C36 32.9272 36 31.8478 36 29.6892V8.37419C36 6.23454 36 5.16472 35.5957 4.33514C35.2091 3.54186 34.5682 2.89646 33.7776 2.50428C32.9509 2.09416 31.8826 2.08666 29.7461 2.07167C23.5583 2.02825 14.1347 1.97678 7.90811 2.01134C6.00541 2.0219 5.05406 2.02718 4.2261 2.43684C3.46476 2.81355 2.77754 3.50459 2.40506 4.26801C2 5.09823 2 6.07666 2 8.03351Z" stroke="#006EB5" stroke-width="3" stroke-linecap="round" stroke-linejoin="round"/>
</svg>
