<svg width="38" height="38" viewBox="0 0 38 38" fill="none" xmlns="http://www.w3.org/2000/svg">
<path d="M2 8.03351V29.68C2 31.8448 2 32.9272 2.40789 33.7598C2.79843 34.5569 3.44306 35.2016 4.24024 35.5921C5.07285 36 6.15523 36 8.32 36H29.68C31.8448 36 32.9272 36 33.7598 35.5921C34.5569 35.2016 35.2016 34.5569 35.5921 33.7598C36 32.9272 36 31.8478 36 29.6892V8.37419C36 6.23454 36 5.16472 35.5957 4.33514C35.2091 3.54186 34.5682 2.89646 33.7776 2.50428C32.9509 2.09416 31.8826 2.08666 29.7461 2.07167C23.5583 2.02825 14.1347 1.97678 7.90811 2.01134C6.00541 2.0219 5.05406 2.02718 4.2261 2.43684C3.46476 2.81355 2.77754 3.50459 2.40506 4.26801C2 5.09823 2 6.07666 2 8.03351Z" stroke="#006EB5" stroke-width="3" stroke-linecap="round" stroke-linejoin="round"/>
<path d="M9.4375 24.8438L15.8125 18.4688L19.5312 22.1875L28.5625 13.1562" stroke="#94C4F5" stroke-width="3" stroke-linecap="round" stroke-linejoin="round"/>
<path d="M22.1875 12.8105L28.9332 12.8104L28.9332 18.8997" stroke="#94C4F5" stroke-width="3" stroke-linecap="round" stroke-linejoin="round"/>
</svg>
