<svg width="38" height="35" viewBox="0 0 38 35" fill="none" xmlns="http://www.w3.org/2000/svg">
<path d="M2 22.3371V22.5C2 25.5376 4.46243 28 7.5 28C10.5376 28 13 25.9945 13 22.9569C13 19.9359 10.5656 17.0155 7.54461 17.0043L7.29735 17.0034C4.31604 16.9934 2 19.3557 2 22.3371Z" stroke="#94C4F5" stroke-width="3" stroke-linecap="round" stroke-linejoin="round"/>
<path d="M13 7.85188V8C13 10.7614 15.2386 13 18 13C20.7614 13 23 11.1768 23 8.41537C23 5.669 20.7869 3.01409 18.0406 3.00392L17.8158 3.00313C15.1055 2.99399 13 5.14158 13 7.85188Z" stroke="#006EB5" stroke-width="3" stroke-linecap="round" stroke-linejoin="round"/>
<path d="M19 24.763V25C19 29.4183 22.5817 33 27 33C31.4183 33 35 30.0829 35 25.6646C35 21.2704 31.4591 17.0225 27.0649 17.0063L26.7052 17.005C22.3688 16.9904 19 20.4265 19 24.763Z" stroke="#006EB5" stroke-width="3" stroke-linecap="round" stroke-linejoin="round"/>
</svg>
