<svg width="35" height="35" viewBox="0 0 35 35" fill="none" xmlns="http://www.w3.org/2000/svg">
<path d="M2 4.82288V11.7453C2 12.7621 2 13.2705 2.19158 13.6615C2.37502 14.036 2.6778 14.3387 3.05224 14.5222C3.44331 14.7138 3.9517 14.7138 4.96848 14.7138H11.7815C12.7982 14.7138 13.3066 14.7138 13.6977 14.5222C14.0721 14.3387 14.3749 14.036 14.5584 13.6615C14.7499 13.2705 14.7499 12.763 14.7499 11.7481V4.98449C14.7499 3.97816 14.7499 3.47499 14.5599 3.08525C14.3783 2.71267 14.077 2.40936 13.7056 2.22526C13.3171 2.03269 12.8152 2.02938 11.8113 2.02277C9.70592 2.00889 6.88181 1.99493 4.77463 2.00181C3.88362 2.00472 3.43811 2.00618 3.04833 2.19825C2.69039 2.37463 2.36601 2.70007 2.1908 3.05858C2 3.44899 2 3.90696 2 4.82288Z" stroke="#94C4F5" stroke-width="3" stroke-linecap="round" stroke-linejoin="round"/>
<path d="M20.25 4.82288V11.7453C20.25 12.7621 20.25 13.2705 20.4416 13.6615C20.625 14.036 20.9278 14.3387 21.3022 14.5222C21.6933 14.7138 22.2017 14.7138 23.2185 14.7138H30.0315C31.0482 14.7138 31.5566 14.7138 31.9477 14.5222C32.3221 14.3387 32.6249 14.036 32.8084 13.6615C32.9999 13.2705 32.9999 12.763 32.9999 11.7481V4.98449C32.9999 3.97816 32.9999 3.47499 32.8099 3.08525C32.6283 2.71267 32.327 2.40936 31.9556 2.22526C31.5671 2.03269 31.0652 2.02938 30.0613 2.02277C27.9559 2.00889 25.1318 1.99493 23.0246 2.00181C22.1336 2.00472 21.6881 2.00618 21.2983 2.19825C20.9404 2.37463 20.616 2.70007 20.4408 3.05858C20.25 3.44899 20.25 3.90696 20.25 4.82288Z" stroke="#006EB5" stroke-width="3" stroke-linecap="round" stroke-linejoin="round"/>
<path d="M2 23.1093V30.0317C2 31.0484 2 31.5568 2.19158 31.9479C2.37502 32.3223 2.6778 32.6251 3.05224 32.8086C3.44331 33.0001 3.9517 33.0001 4.96848 33.0001H11.7815C12.7982 33.0001 13.3066 33.0001 13.6977 32.8086C14.0721 32.6251 14.3749 32.3223 14.5584 31.9479C14.7499 31.5568 14.7499 31.0494 14.7499 30.0344V23.2709C14.7499 22.2645 14.7499 21.7614 14.5599 21.3716C14.3783 20.999 14.077 20.6957 13.7056 20.5116C13.3171 20.3191 12.8152 20.3158 11.8113 20.3091C9.70592 20.2953 6.88181 20.2813 4.77463 20.2882C3.88362 20.2911 3.43811 20.2926 3.04833 20.4846C2.69039 20.661 2.36601 20.9865 2.1908 21.345C2 21.7354 2 22.1933 2 23.1093Z" stroke="#006EB5" stroke-width="3" stroke-linecap="round" stroke-linejoin="round"/>
<path d="M20.25 23.1093V30.0317C20.25 31.0484 20.25 31.5568 20.4416 31.9479C20.625 32.3223 20.9278 32.6251 21.3022 32.8086C21.6933 33.0001 22.2017 33.0001 23.2185 33.0001H30.0315C31.0482 33.0001 31.5566 33.0001 31.9477 32.8086C32.3221 32.6251 32.6249 32.3223 32.8084 31.9479C32.9999 31.5568 32.9999 31.0494 32.9999 30.0344V23.2709C32.9999 22.2645 32.9999 21.7614 32.8099 21.3716C32.6283 20.999 32.327 20.6957 31.9556 20.5116C31.5671 20.3191 31.0652 20.3158 30.0613 20.3091C27.9559 20.2953 25.1318 20.2813 23.0246 20.2882C22.1336 20.2911 21.6881 20.2926 21.2983 20.4846C20.9404 20.661 20.616 20.9865 20.4408 21.345C20.25 21.7354 20.25 22.1933 20.25 23.1093Z" stroke="#006EB5" stroke-width="3" stroke-linecap="round" stroke-linejoin="round"/>
</svg>
