<svg width="383" height="359" viewBox="0 0 383 359" fill="none" xmlns="http://www.w3.org/2000/svg">
<path d="M187 87L187 69" stroke="#DBA2E0"/>
<path d="M67 134L67 115" stroke="#DBA2E0"/>
<path d="M187 18L187 0" stroke="#B267B9" stroke-opacity="0.27"/>
<path d="M67 65L67 46" stroke="#DBA2E0"/>
<path d="M106 60L116 54" stroke="#BD00FF" stroke-opacity="0.5"/>
<path d="M138 154.419L116.5 141.715V116.285L138 103.581L159.5 116.285V141.715L138 154.419Z" stroke="#5C0064" stroke-opacity="0.5"/>
<path d="M317 261.419L295.5 248.715V223.285L317 210.581L338.5 223.285V248.715L317 261.419Z" stroke="#DBA2E0"/>
<path d="M188 69.423L165.5 56.461V30.539L188 17.577L210.5 30.539V56.461L188 69.423Z" stroke="#B267B9" stroke-opacity="0.27"/>
<path d="M67.5 115.423L45.5 102.711V77.2886L67.5 64.5775L89.5 77.2886V102.711L67.5 115.423Z" stroke="#5C0064" stroke-opacity="0.5"/>
<path d="M0 307V281L22 268L44 281V307L22 320L0 307Z" fill="#BD00FF" fill-opacity="0.14"/>
<path d="M69.5 319.423L47.5 306.711V281.289L69.5 268.577L91.5 281.289V306.711L69.5 319.423Z" stroke="#5C0064" stroke-opacity="0.51"/>
<path d="M45 278.416L23.5 265.467V239.533L45 226.584L66.5 239.533V265.467L45 278.416Z" stroke="#5C0064" stroke-opacity="0.51"/>
<path d="M92.5 277.42L70.5 264.464V238.536L92.5 225.58L114.5 238.536V264.464L92.5 277.42Z" stroke="#5C0064" stroke-opacity="0.27"/>
<path d="M116 234.426L93.5 221.708V196.292L116 183.574L138.5 196.292V221.708L116 234.426Z" stroke="#5C0064" stroke-opacity="0.51"/>
<path d="M175.671 301.616V275.52" stroke="#5C0064"/>
<path d="M175.671 275.52L197.93 262.472" stroke="#5C0064"/>
<path d="M197.93 262.472L220.188 275.52" stroke="#5C0064"/>
<path d="M292 304.419L270.5 291.715V266.285L292 253.581L313.5 266.285V291.715L292 304.419Z" stroke="#5C0064"/>
<path d="M175 358.419L153.5 345.715V320.285L175 307.581L196.5 320.285V345.715L175 358.419Z" stroke="#5C0064" stroke-opacity="0.27"/>
<path d="M319 292V266L341 253L363 266V292L341 305L319 292Z" fill="#5C0064" fill-opacity="0.04"/>
<path d="M116 54.75V28.25L138 15L160 28.25V54.75L138 68L116 54.75Z" fill="#CC00FF" fill-opacity="0.04"/>
<path d="M210 56L228 67" stroke="#B267B9" stroke-opacity="0.27"/>
<path d="M363 291L377 299" stroke="#DBA2E0"/>
<path d="M338.251 222.759L351.556 214.877" stroke="#DBA2E0"/>
<path d="M89 103L107 113" stroke="#DBA2E0"/>
<path d="M101 20L116 29" stroke="#BD00FF" stroke-opacity="0.5"/>
<path d="M309.5 155.419L293.5 145.965V127.035L309.5 117.581L325.5 127.035V145.965L309.5 155.419Z" stroke="#DBA2E0"/>
<path d="M161.5 110.419L140.5 97.9652V73.0348L161.5 60.5813L182.5 73.0348V97.9652L161.5 110.419Z" stroke="#DBA2E0"/>
<path d="M270 43V17L291.5 4L313 17V43L291.5 56L270 43Z" fill="#9E00FF" fill-opacity="0.1"/>
<path d="M114.5 110.419L93.5 97.9652V73.0348L114.5 60.5813L135.5 73.0348V97.9652L114.5 110.419Z" stroke="#DBA2E0"/>
<path d="M357.085 240.898L382 255.432" stroke="#DBA2E0"/>
<path d="M139.075 242.455V116.84" stroke="#DBA2E0"/>
<path d="M249.117 58.1844L249.117 33.269" stroke="#DBA2E0"/>
<path d="M139.075 116.84L248.08 54.0325" stroke="#DBA2E0"/>
<path d="M248.08 54.0325L357.085 116.84" stroke="#DBA2E0"/>
<path d="M357.085 116.84V242.455" stroke="#DBA2E0"/>
<path d="M357.085 242.454L248.08 305.262" stroke="#DBA2E0"/>
<circle cx="249.119" cy="54.032" r="4.15256" fill="#DBA2E0"/>
<circle cx="249.119" cy="305.262" r="4.15256" fill="#DBA2E0"/>
<circle cx="357.084" cy="116.32" r="4.15256" fill="#DBA2E0"/>
<circle cx="357.085" cy="240.898" r="4.15256" fill="#DBA2E0"/>
<circle cx="139.075" cy="116.32" r="4.15256" fill="#DBA2E0"/>
<circle cx="248.993" cy="154.441" r="24.4471" stroke="#9900A6" stroke-width="4" stroke-linecap="round"/>
<line x1="249.583" y1="129.497" x2="249.583" y2="111.119" stroke="#9900A6" stroke-width="4" stroke-linecap="round"/>
<line x1="249.583" y1="195.563" x2="249.583" y2="179.219" stroke="#9900A6" stroke-width="4" stroke-linecap="round"/>
<line x1="223.65" y1="153.994" x2="205.272" y2="153.994" stroke="#9900A6" stroke-width="4" stroke-linecap="round"/>
<line x1="291.75" y1="153.994" x2="273.372" y2="153.994" stroke="#9900A6" stroke-width="4" stroke-linecap="round"/>
<path d="M215.75 225.238L177.097 225.238L177.097 191.119" stroke="#9900A6" stroke-width="4" stroke-linecap="round"/>
<path d="M283.75 224.44H322.511V192.119" stroke="#9900A6" stroke-width="4" stroke-linecap="round"/>
<path d="M175.75 119.772L175.75 81.1187L215.542 81.1187" stroke="#9900A6" stroke-width="4" stroke-linecap="round"/>
<path d="M284.956 81.1187L322.75 81.1187L322.75 120.476" stroke="#9900A6" stroke-width="4" stroke-linecap="round"/>
</svg>
