<svg width="649" height="200" viewBox="0 0 649 200" fill="none" xmlns="http://www.w3.org/2000/svg">
<mask id="mask0_600_16462" style="mask-type:alpha" maskUnits="userSpaceOnUse" x="24" y="14" width="43" height="43">
<rect x="24.3364" y="14.7803" width="42" height="42" fill="#D9D9D9"/>
</mask>
<g mask="url(#mask0_600_16462)">
<path d="M31.3364 34.0303V21.7803H43.5864V34.0303H31.3364ZM31.3364 49.7803V37.5303H43.5864V49.7803H31.3364ZM47.0864 34.0303V21.7803H59.3364V34.0303H47.0864ZM47.0864 49.7803V37.5303H59.3364V49.7803H47.0864ZM33.0864 32.2803H41.8364V23.5303H33.0864V32.2803ZM48.8364 32.2803H57.5864V23.5303H48.8364V32.2803ZM48.8364 48.0303H57.5864V39.2803H48.8364V48.0303ZM33.0864 48.0303H41.8364V39.2803H33.0864V48.0303Z" fill="#1C1B1F"/>
</g>
<path d="M32.9428 64.4908C33.2299 64.793 33.5775 65.0386 33.9855 65.2275C34.4011 65.4164 34.8545 65.5109 35.3456 65.5109C35.7612 65.5109 36.0823 65.4277 36.309 65.2615C36.5433 65.0953 36.6604 64.895 36.6604 64.6608C36.6604 64.4039 36.5357 64.2112 36.2864 64.0828C36.037 63.9468 35.6517 63.8183 35.1303 63.6974C34.5409 63.5614 34.0611 63.4254 33.6909 63.2894C33.3206 63.1534 32.9957 62.9342 32.7161 62.632C32.4441 62.3222 32.3081 61.9066 32.3081 61.3853C32.3081 60.9621 32.4252 60.5768 32.6595 60.2292C32.8937 59.8816 33.2262 59.6096 33.6569 59.4131C34.0951 59.2091 34.6014 59.1071 35.1756 59.1071C36.377 59.1071 37.3593 59.4585 38.1225 60.1612L37.2271 61.3399C36.9324 61.0679 36.5924 60.8639 36.207 60.7279C35.8292 60.5843 35.4476 60.5125 35.0623 60.5125C34.7071 60.5125 34.4313 60.5843 34.2349 60.7279C34.046 60.8639 33.9515 61.049 33.9515 61.2833C33.9515 61.5175 34.0687 61.6913 34.3029 61.8046C34.5371 61.9104 34.9225 62.0275 35.459 62.156C36.0332 62.2844 36.5093 62.4242 36.8871 62.5753C37.2724 62.7189 37.6011 62.9456 37.8731 63.2554C38.1527 63.5652 38.2925 63.977 38.2925 64.4908C38.2925 65.2162 38.0318 65.8018 37.5104 66.2476C36.9966 66.6934 36.2486 66.9163 35.2663 66.9163C33.9289 66.9163 32.8597 66.5158 32.0588 65.7149L32.9428 64.4908ZM39.7161 66.7803V59.2205H42.697C43.4828 59.2205 44.178 59.3791 44.7825 59.6965C45.387 60.0063 45.8592 60.4483 46.1992 61.0226C46.5393 61.5968 46.7093 62.258 46.7093 63.006C46.7093 63.7541 46.5393 64.4152 46.1992 64.9895C45.8592 65.5562 45.387 65.9982 44.7825 66.3156C44.178 66.6254 43.4828 66.7803 42.697 66.7803H39.7161ZM42.697 65.3635C43.1806 65.3635 43.6 65.2577 43.9551 65.0462C44.3178 64.8346 44.5936 64.5512 44.7825 64.1961C44.9714 63.8334 45.0658 63.4367 45.0658 63.006C45.0658 62.3109 44.858 61.7442 44.4425 61.3059C44.0269 60.8601 43.4451 60.6372 42.697 60.6372H41.3256V65.3635H42.697ZM47.8288 63.006C47.8288 62.2278 48.0063 61.5439 48.3615 60.9546C48.7242 60.3576 49.2115 59.9005 49.8236 59.5831C50.4356 59.2582 51.1119 59.0958 51.8524 59.0958C52.5853 59.0958 53.2087 59.2469 53.7225 59.5491C54.2438 59.8514 54.6632 60.2519 54.9806 60.7506L53.6431 61.4759C53.4542 61.1964 53.2011 60.9697 52.8838 60.7959C52.574 60.6145 52.2302 60.5239 51.8524 60.5239C51.399 60.5239 50.991 60.6334 50.6283 60.8526C50.2731 61.0641 49.9936 61.3588 49.7896 61.7366C49.5855 62.1144 49.4835 62.5376 49.4835 63.006C49.4835 63.4745 49.5855 63.8976 49.7896 64.2754C49.9936 64.6532 50.2731 64.9517 50.6283 65.1708C50.991 65.3824 51.399 65.4882 51.8524 65.4882C52.1773 65.4882 52.4833 65.4315 52.7704 65.3182C53.0651 65.2048 53.3031 65.0688 53.4845 64.9102V63.9921H51.467V62.6093H55.0712V65.4995C54.6708 65.9529 54.1985 66.3042 53.6545 66.5536C53.118 66.8029 52.5173 66.9276 51.8524 66.9276C51.1119 66.9276 50.4356 66.7652 49.8236 66.4403C49.2115 66.1153 48.7242 65.6544 48.3615 65.0575C48.0063 64.4606 47.8288 63.7767 47.8288 63.006ZM26.7626 79.7803H25.1419V73.6372H22.9317V72.2205H28.9615V73.6372H26.7626V79.7803ZM34.6062 79.7803L33.1214 77.0714H31.9427V79.7803H30.3332V72.2205H33.8695C34.3833 72.2205 34.8329 72.3262 35.2182 72.5378C35.6036 72.7418 35.8983 73.029 36.1023 73.3992C36.3063 73.7694 36.4083 74.1888 36.4083 74.6573C36.4083 75.2769 36.2458 75.7794 35.9209 76.1647C35.6036 76.5501 35.2144 76.7956 34.7535 76.9014L36.4536 79.7803H34.6062ZM34.7648 74.6459C34.7648 74.3361 34.6553 74.0868 34.4362 73.8979C34.2246 73.7014 33.9564 73.6032 33.6314 73.6032H31.9427V75.6887H33.6314C33.9564 75.6887 34.2246 75.5942 34.4362 75.4053C34.6553 75.2089 34.7648 74.9557 34.7648 74.6459ZM43.3059 79.7803H37.9563V72.2205H43.3059V73.6032H39.5657V75.2466H43.2266V76.6294H39.5657V78.3862H43.3059V79.7803ZM51.6706 79.7803H50.1178L46.5136 74.7026V79.7803H44.9041V72.2205H46.5589L50.0611 77.1168V72.2205H51.6706V79.7803ZM53.5012 79.7803V72.2205H56.4821C57.2679 72.2205 57.963 72.3791 58.5675 72.6965C59.172 73.0063 59.6443 73.4483 59.9843 74.0226C60.3243 74.5968 60.4943 75.258 60.4943 76.006C60.4943 76.7541 60.3243 77.4152 59.9843 77.9895C59.6443 78.5562 59.172 78.9982 58.5675 79.3156C57.963 79.6254 57.2679 79.7803 56.4821 79.7803H53.5012ZM56.4821 78.3635C56.9656 78.3635 57.385 78.2577 57.7401 78.0462C58.1028 77.8346 58.3786 77.5512 58.5675 77.1961C58.7564 76.8334 58.8509 76.4367 58.8509 76.006C58.8509 75.3109 58.6431 74.7442 58.2275 74.3059C57.8119 73.8601 57.2301 73.6372 56.4821 73.6372H55.1106V78.3635H56.4821ZM62.3392 77.4908C62.6263 77.793 62.9739 78.0386 63.3819 78.2275C63.7975 78.4164 64.2509 78.5109 64.742 78.5109C65.1576 78.5109 65.4787 78.4277 65.7054 78.2615C65.9396 78.0953 66.0568 77.895 66.0568 77.6608C66.0568 77.4039 65.9321 77.2112 65.6827 77.0828C65.4334 76.9468 65.048 76.8183 64.5267 76.6974C63.9373 76.5614 63.4575 76.4254 63.0872 76.2894C62.717 76.1534 62.3921 75.9342 62.1125 75.632C61.8405 75.3222 61.7045 74.9066 61.7045 74.3853C61.7045 73.9621 61.8216 73.5768 62.0558 73.2292C62.2901 72.8816 62.6225 72.6096 63.0532 72.4131C63.4915 72.2091 63.9977 72.1071 64.572 72.1071C65.7734 72.1071 66.7557 72.4585 67.5189 73.1612L66.6235 74.3399C66.3288 74.0679 65.9888 73.8639 65.6034 73.7279C65.2256 73.5843 64.844 73.5125 64.4587 73.5125C64.1035 73.5125 63.8277 73.5843 63.6313 73.7279C63.4424 73.8639 63.3479 74.049 63.3479 74.2833C63.3479 74.5175 63.465 74.6913 63.6993 74.8046C63.9335 74.9104 64.3189 75.0275 64.8554 75.156C65.4296 75.2844 65.9056 75.4242 66.2834 75.5753C66.6688 75.7189 66.9975 75.9456 67.2695 76.2554C67.5491 76.5652 67.6889 76.977 67.6889 77.4908C67.6889 78.2162 67.4282 78.8018 66.9068 79.2476C66.393 79.6934 65.645 79.9163 64.6627 79.9163C63.3253 79.9163 62.2561 79.5158 61.4551 78.7149L62.3392 77.4908Z" fill="black"/>
<mask id="mask1_600_16462" style="mask-type:alpha" maskUnits="userSpaceOnUse" x="24" y="118" width="43" height="43">
<rect x="24.2627" y="118.406" width="42" height="42" fill="#D9D9D9"/>
</mask>
<g mask="url(#mask1_600_16462)">
<path d="M53.6088 153.002C52.1651 153.002 50.9291 152.488 49.901 151.46C48.8729 150.432 48.3588 149.196 48.3588 147.752C48.3588 146.308 48.8729 145.073 49.901 144.044C50.9291 143.016 52.1651 142.502 53.6088 142.502C55.0526 142.502 56.2885 143.016 57.3166 144.044C58.3448 145.073 58.8589 146.308 58.8589 147.752C58.8589 149.196 58.3448 150.432 57.3166 151.46C56.2885 152.488 55.0526 153.002 53.6088 153.002ZM53.6088 151.252C54.5713 151.252 55.3953 150.909 56.0807 150.224C56.7661 149.539 57.1088 148.715 57.1088 147.752C57.1088 146.79 56.7661 145.966 56.0807 145.28C55.3953 144.595 54.5713 144.252 53.6088 144.252C52.6463 144.252 51.8224 144.595 51.137 145.28C50.4515 145.966 50.1088 146.79 50.1088 147.752C50.1088 148.715 50.4515 149.539 51.137 150.224C51.8224 150.909 52.6463 151.252 53.6088 151.252ZM36.9165 147.752C35.4728 147.752 34.2369 147.238 33.2087 146.21C32.1806 145.182 31.6665 143.946 31.6665 142.502C31.6665 141.058 32.1806 139.823 33.2087 138.794C34.2369 137.766 35.4728 137.252 36.9165 137.252C38.3603 137.252 39.5962 137.766 40.6244 138.794C41.6525 139.823 42.1665 141.058 42.1665 142.502C42.1665 143.946 41.6525 145.182 40.6244 146.21C39.5962 147.238 38.3603 147.752 36.9165 147.752ZM36.9165 146.002C37.879 146.002 38.703 145.659 39.3884 144.974C40.0738 144.289 40.4165 143.465 40.4165 142.502C40.4165 141.54 40.0738 140.716 39.3884 140.03C38.703 139.345 37.879 139.002 36.9165 139.002C35.954 139.002 35.1301 139.345 34.4447 140.03C33.7593 140.716 33.4165 141.54 33.4165 142.502C33.4165 143.465 33.7593 144.289 34.4447 144.974C35.1301 145.659 35.954 146.002 36.9165 146.002ZM43.5127 134.829C42.0689 134.829 40.833 134.315 39.8049 133.287C38.7768 132.259 38.2627 131.023 38.2627 129.579C38.2627 128.135 38.7768 126.899 39.8049 125.871C40.833 124.843 42.0689 124.329 43.5127 124.329C44.9564 124.329 46.1924 124.843 47.2205 125.871C48.2486 126.899 48.7627 128.135 48.7627 129.579C48.7627 131.023 48.2486 132.259 47.2205 133.287C46.1924 134.315 44.9564 134.829 43.5127 134.829ZM43.5127 133.079C44.4752 133.079 45.2992 132.736 45.9846 132.051C46.67 131.366 47.0127 130.542 47.0127 129.579C47.0127 128.617 46.67 127.793 45.9846 127.107C45.2992 126.422 44.4752 126.079 43.5127 126.079C42.5502 126.079 41.7262 126.422 41.0408 127.107C40.3554 127.793 40.0127 128.617 40.0127 129.579C40.0127 130.542 40.3554 131.366 41.0408 132.051C41.7262 132.736 42.5502 133.079 43.5127 133.079Z" fill="#1C1B1F"/>
</g>
<path d="M34.4891 168.117C34.7762 168.419 35.1238 168.664 35.5318 168.853C35.9474 169.042 36.4007 169.137 36.8919 169.137C37.3075 169.137 37.6286 169.053 37.8553 168.887C38.0895 168.721 38.2066 168.521 38.2066 168.287C38.2066 168.03 38.0819 167.837 37.8326 167.708C37.5833 167.572 37.1979 167.444 36.6765 167.323C36.0872 167.187 35.6073 167.051 35.2371 166.915C34.8669 166.779 34.5419 166.56 34.2624 166.258C33.9904 165.948 33.8543 165.532 33.8543 165.011C33.8543 164.588 33.9715 164.202 34.2057 163.855C34.4399 163.507 34.7724 163.235 35.2031 163.039C35.6413 162.835 36.1476 162.733 36.7219 162.733C37.9233 162.733 38.9056 163.084 39.6687 163.787L38.7733 164.966C38.4786 164.694 38.1386 164.49 37.7533 164.354C37.3755 164.21 36.9939 164.138 36.6085 164.138C36.2534 164.138 35.9776 164.21 35.7811 164.354C35.5922 164.49 35.4978 164.675 35.4978 164.909C35.4978 165.143 35.6149 165.317 35.8491 165.43C36.0834 165.536 36.4687 165.653 37.0052 165.782C37.5795 165.91 38.0555 166.05 38.4333 166.201C38.8187 166.345 39.1474 166.571 39.4194 166.881C39.6989 167.191 39.8387 167.603 39.8387 168.117C39.8387 168.842 39.578 169.427 39.0567 169.873C38.5429 170.319 37.7948 170.542 36.8125 170.542C35.4751 170.542 34.4059 170.142 33.605 169.341L34.4891 168.117ZM41.2624 170.406V162.846H44.2433C45.0291 162.846 45.7242 163.005 46.3287 163.322C46.9332 163.632 47.4055 164.074 47.7455 164.648C48.0855 165.223 48.2555 165.884 48.2555 166.632C48.2555 167.38 48.0855 168.041 47.7455 168.615C47.4055 169.182 46.9332 169.624 46.3287 169.941C45.7242 170.251 45.0291 170.406 44.2433 170.406H41.2624ZM44.2433 168.989C44.7268 168.989 45.1462 168.883 45.5013 168.672C45.864 168.46 46.1398 168.177 46.3287 167.822C46.5176 167.459 46.6121 167.062 46.6121 166.632C46.6121 165.937 46.4043 165.37 45.9887 164.932C45.5731 164.486 44.9913 164.263 44.2433 164.263H42.8718V168.989H44.2433ZM49.375 166.632C49.375 165.853 49.5526 165.17 49.9077 164.58C50.2704 163.983 50.7578 163.526 51.3698 163.209C51.9818 162.884 52.6581 162.722 53.3986 162.722C54.1315 162.722 54.7549 162.873 55.2687 163.175C55.7901 163.477 56.2095 163.878 56.5268 164.376L55.1894 165.102C55.0005 164.822 54.7474 164.595 54.43 164.422C54.1202 164.24 53.7764 164.15 53.3986 164.15C52.9452 164.15 52.5372 164.259 52.1745 164.478C51.8194 164.69 51.5398 164.985 51.3358 165.362C51.1318 165.74 51.0298 166.163 51.0298 166.632C51.0298 167.1 51.1318 167.523 51.3358 167.901C51.5398 168.279 51.8194 168.577 52.1745 168.797C52.5372 169.008 52.9452 169.114 53.3986 169.114C53.7235 169.114 54.0295 169.057 54.3167 168.944C54.6113 168.831 54.8494 168.695 55.0307 168.536V167.618H53.0132V166.235H56.6175V169.125C56.217 169.579 55.7448 169.93 55.2007 170.179C54.6642 170.429 54.0635 170.553 53.3986 170.553C52.6581 170.553 51.9818 170.391 51.3698 170.066C50.7578 169.741 50.2704 169.28 49.9077 168.683C49.5526 168.086 49.375 167.402 49.375 166.632ZM14.6623 183.406V175.846H18.1986C18.7275 175.846 19.1846 175.956 19.57 176.175C19.9553 176.394 20.2462 176.689 20.4427 177.059C20.6392 177.422 20.7374 177.83 20.7374 178.283C20.7374 178.729 20.6354 179.137 20.4314 179.507C20.2349 179.87 19.944 180.161 19.5586 180.38C19.1808 180.591 18.7275 180.697 18.1986 180.697H16.2718V183.406H14.6623ZM19.0939 178.272C19.0939 177.962 18.9882 177.713 18.7766 177.524C18.565 177.327 18.3006 177.229 17.9832 177.229H16.2718V179.314H17.9832C18.3081 179.314 18.5726 179.22 18.7766 179.031C18.9882 178.835 19.0939 178.581 19.0939 178.272ZM26.348 183.406L24.8632 180.697H23.6845V183.406H22.0751V175.846H25.6113C26.1251 175.846 26.5747 175.952 26.96 176.164C27.3454 176.368 27.6401 176.655 27.8441 177.025C28.0481 177.395 28.1501 177.815 28.1501 178.283C28.1501 178.903 27.9877 179.405 27.6628 179.79C27.3454 180.176 26.9563 180.421 26.4954 180.527L28.1955 183.406H26.348ZM26.5067 178.272C26.5067 177.962 26.3971 177.713 26.178 177.524C25.9664 177.327 25.6982 177.229 25.3733 177.229H23.6845V179.314H25.3733C25.6982 179.314 25.9664 179.22 26.178 179.031C26.3971 178.835 26.5067 178.581 26.5067 178.272ZM31.3075 183.406H29.6981V175.846H31.3075V183.406ZM32.7857 179.632C32.7857 178.884 32.9557 178.215 33.2957 177.626C33.6357 177.029 34.1042 176.564 34.7011 176.232C35.3056 175.892 35.9819 175.722 36.7299 175.722C37.4855 175.722 38.1618 175.892 38.7587 176.232C39.3632 176.564 39.8355 177.029 40.1755 177.626C40.5155 178.215 40.6855 178.884 40.6855 179.632C40.6855 180.38 40.5155 181.052 40.1755 181.649C39.8355 182.239 39.3632 182.703 38.7587 183.043C38.1618 183.376 37.4855 183.542 36.7299 183.542C35.9819 183.542 35.3056 183.376 34.7011 183.043C34.1042 182.703 33.6357 182.239 33.2957 181.649C32.9557 181.052 32.7857 180.38 32.7857 179.632ZM39.0307 179.632C39.0307 179.163 38.9363 178.74 38.7474 178.362C38.5585 177.985 38.2865 177.69 37.9313 177.478C37.5838 177.259 37.1833 177.15 36.7299 177.15C36.2766 177.15 35.8761 177.259 35.5285 177.478C35.1809 177.69 34.9127 177.985 34.7238 178.362C34.5349 178.74 34.4404 179.163 34.4404 179.632C34.4404 180.1 34.5349 180.523 34.7238 180.901C34.9127 181.279 35.1809 181.577 35.5285 181.797C35.8761 182.008 36.2766 182.114 36.7299 182.114C37.1833 182.114 37.5838 182.008 37.9313 181.797C38.2865 181.577 38.5585 181.279 38.7474 180.901C38.9363 180.523 39.0307 180.1 39.0307 179.632ZM46.4279 183.406L44.9431 180.697H43.7644V183.406H42.1549V175.846H45.6912C46.205 175.846 46.6546 175.952 47.0399 176.164C47.4253 176.368 47.72 176.655 47.924 177.025C48.128 177.395 48.23 177.815 48.23 178.283C48.23 178.903 48.0675 179.405 47.7426 179.79C47.4253 180.176 47.0361 180.421 46.5752 180.527L48.2753 183.406H46.4279ZM46.5866 178.272C46.5866 177.962 46.477 177.713 46.2579 177.524C46.0463 177.327 45.7781 177.229 45.4532 177.229H43.7644V179.314H45.4532C45.7781 179.314 46.0463 179.22 46.2579 179.031C46.477 178.835 46.5866 178.581 46.5866 178.272ZM51.3874 183.406H49.778V175.846H51.3874V183.406ZM56.5944 183.406H54.9737V177.263H52.7635V175.846H58.7933V177.263H56.5944V183.406ZM61.7745 183.406H60.165V175.846H61.7745V183.406ZM68.965 183.406H63.6153V175.846H68.965V177.229H65.2247V178.872H68.8856V180.255H65.2247V182.012H68.965V183.406ZM70.9258 181.117C71.213 181.419 71.5605 181.664 71.9686 181.853C72.3842 182.042 72.8375 182.137 73.3287 182.137C73.7442 182.137 74.0654 182.053 74.2921 181.887C74.5263 181.721 74.6434 181.521 74.6434 181.287C74.6434 181.03 74.5187 180.837 74.2694 180.708C74.02 180.572 73.6347 180.444 73.1133 180.323C72.5239 180.187 72.0441 180.051 71.6739 179.915C71.3036 179.779 70.9787 179.56 70.6992 179.258C70.4271 178.948 70.2911 178.532 70.2911 178.011C70.2911 177.588 70.4083 177.202 70.6425 176.855C70.8767 176.507 71.2092 176.235 71.6399 176.039C72.0781 175.835 72.5844 175.733 73.1586 175.733C74.3601 175.733 75.3423 176.084 76.1055 176.787L75.2101 177.966C74.9154 177.694 74.5754 177.49 74.19 177.354C73.8122 177.21 73.4307 177.138 73.0453 177.138C72.6902 177.138 72.4144 177.21 72.2179 177.354C72.029 177.49 71.9346 177.675 71.9346 177.909C71.9346 178.143 72.0517 178.317 72.2859 178.43C72.5202 178.536 72.9055 178.653 73.442 178.782C74.0163 178.91 74.4923 179.05 74.8701 179.201C75.2554 179.345 75.5841 179.571 75.8562 179.881C76.1357 180.191 76.2755 180.603 76.2755 181.117C76.2755 181.842 76.0148 182.427 75.4935 182.873C74.9797 183.319 74.2316 183.542 73.2493 183.542C71.9119 183.542 70.8427 183.142 70.0418 182.341L70.9258 181.117Z" fill="black"/>
<path d="M180.5 98.9762L122.676 98.9762C118.205 98.9762 114.58 102.601 114.58 107.072L114.58 188.839C114.58 193.31 110.956 196.935 106.484 196.935L100.008 196.935" stroke="black"/>
<path d="M174.5 98.9762L122.676 98.9762C118.205 98.9762 114.58 95.3516 114.58 90.8805L114.58 9.11333C114.58 4.64217 110.956 1.01758 106.484 1.01758L100.008 1.01758" stroke="black"/>
<path d="M193.229 103.784H191.377V96.7638H188.851V95.1446H195.742V96.7638H193.229V103.784ZM202.193 103.784L200.496 100.689H199.149V103.784H197.31V95.1446H201.351C201.938 95.1446 202.452 95.2655 202.892 95.5073C203.333 95.7405 203.67 96.0686 203.903 96.4918C204.136 96.9149 204.252 97.3942 204.252 97.9296C204.252 98.6377 204.067 99.2119 203.695 99.6523C203.333 100.093 202.888 100.373 202.361 100.494L204.304 103.784H202.193ZM202.374 97.9166C202.374 97.5626 202.249 97.2776 201.999 97.0617C201.757 96.8372 201.45 96.7249 201.079 96.7249H199.149V99.1083H201.079C201.45 99.1083 201.757 99.0004 201.999 98.7845C202.249 98.56 202.374 98.2707 202.374 97.9166ZM214.078 103.784H212.071L211.527 102.295H207.667L207.123 103.784H205.102L208.444 95.1446H210.75L214.078 103.784ZM211.022 100.702L209.597 96.7379L208.159 100.702H211.022ZM222.998 103.784H221.223L217.104 97.9814V103.784H215.265V95.1446H217.156L221.159 100.74V95.1446H222.998V103.784ZM225.505 101.168C225.833 101.513 226.23 101.794 226.696 102.01C227.171 102.226 227.689 102.334 228.251 102.334C228.726 102.334 229.093 102.239 229.352 102.049C229.619 101.859 229.753 101.63 229.753 101.362C229.753 101.069 229.611 100.848 229.326 100.702C229.041 100.546 228.6 100.399 228.005 100.261C227.331 100.106 226.783 99.9503 226.36 99.7948C225.936 99.6394 225.565 99.389 225.246 99.0435C224.935 98.6895 224.779 98.2145 224.779 97.6187C224.779 97.1351 224.913 96.6947 225.181 96.2975C225.448 95.9002 225.828 95.5894 226.321 95.3648C226.822 95.1317 227.4 95.0151 228.056 95.0151C229.429 95.0151 230.552 95.4166 231.424 96.2197L230.401 97.5669C230.064 97.256 229.676 97.0228 229.235 96.8674C228.803 96.7033 228.367 96.6213 227.927 96.6213C227.521 96.6213 227.206 96.7033 226.981 96.8674C226.765 97.0228 226.657 97.2344 226.657 97.5021C226.657 97.7698 226.791 97.9684 227.059 98.098C227.327 98.2189 227.767 98.3527 228.38 98.4995C229.037 98.6463 229.581 98.8061 230.012 98.9788C230.453 99.1429 230.828 99.4019 231.139 99.756C231.459 100.11 231.619 100.581 231.619 101.168C231.619 101.997 231.321 102.666 230.725 103.176C230.138 103.685 229.283 103.94 228.16 103.94C226.632 103.94 225.41 103.482 224.494 102.567L225.505 101.168ZM235.085 103.784H233.246V95.1446H239.36V96.7249H235.085V98.6031H239.269V100.183H235.085V103.784ZM240.62 99.471C240.62 98.6161 240.814 97.8519 241.203 97.1783C241.591 96.4961 242.127 95.965 242.809 95.585C243.5 95.1964 244.273 95.0021 245.127 95.0021C245.991 95.0021 246.764 95.1964 247.446 95.585C248.137 95.965 248.677 96.4961 249.065 97.1783C249.454 97.8519 249.648 98.6161 249.648 99.471C249.648 100.326 249.454 101.094 249.065 101.777C248.677 102.45 248.137 102.981 247.446 103.37C246.764 103.75 245.991 103.94 245.127 103.94C244.273 103.94 243.5 103.75 242.809 103.37C242.127 102.981 241.591 102.45 241.203 101.777C240.814 101.094 240.62 100.326 240.62 99.471ZM247.757 99.471C247.757 98.9356 247.649 98.452 247.433 98.0202C247.217 97.5885 246.906 97.2517 246.5 97.0099C246.103 96.7595 245.646 96.6343 245.127 96.6343C244.609 96.6343 244.152 96.7595 243.754 97.0099C243.357 97.2517 243.051 97.5885 242.835 98.0202C242.619 98.452 242.511 98.9356 242.511 99.471C242.511 100.006 242.619 100.49 242.835 100.922C243.051 101.354 243.357 101.695 243.754 101.945C244.152 102.187 244.609 102.308 245.127 102.308C245.646 102.308 246.103 102.187 246.5 101.945C246.906 101.695 247.217 101.354 247.433 100.922C247.649 100.49 247.757 100.006 247.757 99.471ZM256.211 103.784L254.514 100.689H253.167V103.784H251.327V95.1446H255.369C255.956 95.1446 256.47 95.2655 256.91 95.5073C257.351 95.7405 257.687 96.0686 257.921 96.4918C258.154 96.9149 258.27 97.3942 258.27 97.9296C258.27 98.6377 258.085 99.2119 257.713 99.6523C257.351 100.093 256.906 100.373 256.379 100.494L258.322 103.784H256.211ZM256.392 97.9166C256.392 97.5626 256.267 97.2776 256.017 97.0617C255.775 96.8372 255.468 96.7249 255.097 96.7249H253.167V99.1083H255.097C255.468 99.1083 255.775 99.0004 256.017 98.7845C256.267 98.56 256.392 98.2707 256.392 97.9166ZM269.405 103.784H267.552V97.5669L265.117 103.784H264.314L261.879 97.5669V103.784H260.04V95.1446H262.617L264.716 100.533L266.814 95.1446H269.405V103.784ZM279.566 103.784H277.558L277.014 102.295H273.154L272.61 103.784H270.589L273.931 95.1446H276.237L279.566 103.784ZM276.509 100.702L275.084 96.7379L273.646 100.702H276.509ZM283.765 103.784H281.912V96.7638H279.387V95.1446H286.278V96.7638H283.765V103.784ZM289.685 103.784H287.845V95.1446H289.685V103.784ZM296.516 103.784H294.211L290.869 95.1446H292.967L295.364 101.79L297.747 95.1446H299.845L296.516 103.784ZM307.146 103.784H301.032V95.1446H307.146V96.7249H302.871V98.6031H307.055V100.183H302.871V102.191H307.146V103.784ZM312.675 103.784V95.1446H316.716C317.321 95.1446 317.843 95.2698 318.284 95.5203C318.724 95.7707 319.057 96.1075 319.281 96.5306C319.506 96.9451 319.618 97.4114 319.618 97.9296C319.618 98.4391 319.501 98.9054 319.268 99.3285C319.044 99.743 318.711 100.075 318.271 100.326C317.839 100.568 317.321 100.689 316.716 100.689H314.514V103.784H312.675ZM317.74 97.9166C317.74 97.5626 317.619 97.2776 317.377 97.0617C317.135 96.8372 316.833 96.7249 316.47 96.7249H314.514V99.1083H316.47C316.842 99.1083 317.144 99.0004 317.377 98.7845C317.619 98.56 317.74 98.2707 317.74 97.9166ZM328.242 103.784H326.235L325.691 102.295H321.83L321.286 103.784H319.266L322.608 95.1446H324.913L328.242 103.784ZM325.185 100.702L323.76 96.7379L322.323 100.702H325.185ZM332.441 103.784H330.589V96.7638H328.063V95.1446H334.954V96.7638H332.441V103.784ZM344.294 103.784H342.441V100.158H338.361V103.784H336.522V95.1446H338.361V98.5384H342.441V95.1446H344.294V103.784ZM354.947 103.784H352.991L351.475 97.8519L349.973 103.784H348.017L345.543 95.1446H347.602L349.118 101.388L350.763 95.1446H352.201L353.833 101.388L355.335 95.1446H357.408L354.947 103.784ZM366.152 103.784H364.144L363.6 102.295H359.74L359.196 103.784H357.175L360.517 95.1446H362.823L366.152 103.784ZM363.095 100.702L361.67 96.7379L360.232 100.702H363.095ZM370.714 103.784H368.875V100.248L365.546 95.1446H367.644L369.794 98.6161L371.919 95.1446H374.017L370.714 100.248V103.784ZM375.364 101.168C375.692 101.513 376.09 101.794 376.556 102.01C377.031 102.226 377.549 102.334 378.11 102.334C378.585 102.334 378.952 102.239 379.211 102.049C379.479 101.859 379.613 101.63 379.613 101.362C379.613 101.069 379.47 100.848 379.185 100.702C378.9 100.546 378.46 100.399 377.864 100.261C377.191 100.106 376.642 99.9503 376.219 99.7948C375.796 99.6394 375.425 99.389 375.105 99.0435C374.794 98.6895 374.639 98.2145 374.639 97.6187C374.639 97.1351 374.773 96.6947 375.04 96.2975C375.308 95.9002 375.688 95.5894 376.18 95.3648C376.681 95.1317 377.26 95.0151 377.916 95.0151C379.289 95.0151 380.412 95.4166 381.284 96.2197L380.26 97.5669C379.924 97.256 379.535 97.0228 379.095 96.8674C378.663 96.7033 378.227 96.6213 377.786 96.6213C377.381 96.6213 377.065 96.7033 376.841 96.8674C376.625 97.0228 376.517 97.2344 376.517 97.5021C376.517 97.7698 376.651 97.9684 376.919 98.098C377.186 98.2189 377.627 98.3527 378.24 98.4995C378.896 98.6463 379.44 98.8061 379.872 98.9788C380.312 99.1429 380.688 99.4019 380.999 99.756C381.318 100.11 381.478 100.581 381.478 101.168C381.478 101.997 381.18 102.666 380.584 103.176C379.997 103.685 379.142 103.94 378.02 103.94C376.491 103.94 375.269 103.482 374.354 102.567L375.364 101.168Z" fill="black"/>
<path d="M515.289 84.0724C515.617 84.4178 516.014 84.6985 516.481 84.9144C516.956 85.1303 517.474 85.2382 518.035 85.2382C518.51 85.2382 518.877 85.1432 519.136 84.9532C519.404 84.7633 519.538 84.5344 519.538 84.2667C519.538 83.9731 519.395 83.7529 519.11 83.6061C518.825 83.4507 518.385 83.3039 517.789 83.1657C517.115 83.0103 516.567 82.8548 516.144 82.6994C515.721 82.5439 515.349 82.2935 515.03 81.9481C514.719 81.594 514.564 81.1191 514.564 80.5232C514.564 80.0397 514.697 79.5992 514.965 79.202C515.233 78.8048 515.613 78.4939 516.105 78.2694C516.606 78.0362 517.184 77.9196 517.841 77.9196C519.214 77.9196 520.336 78.3212 521.209 79.1243L520.185 80.4714C519.848 80.1605 519.46 79.9274 519.019 79.772C518.588 79.6079 518.152 79.5258 517.711 79.5258C517.305 79.5258 516.99 79.6079 516.766 79.772C516.55 79.9274 516.442 80.139 516.442 80.4067C516.442 80.6744 516.576 80.873 516.843 81.0025C517.111 81.1234 517.551 81.2573 518.165 81.4041C518.821 81.5509 519.365 81.7106 519.797 81.8833C520.237 82.0474 520.613 82.3065 520.924 82.6605C521.243 83.0146 521.403 83.4852 521.403 84.0724C521.403 84.9014 521.105 85.5707 520.509 86.0802C519.922 86.5897 519.067 86.8444 517.944 86.8444C516.416 86.8444 515.194 86.3867 514.279 85.4714L515.289 84.0724ZM527.19 86.689H525.351V83.1527L522.022 78.0492H524.12L526.27 81.5206L528.395 78.0492H530.493L527.19 83.1527V86.689ZM539.412 86.689H537.637L533.518 80.8859V86.689H531.679V78.0492H533.57L537.572 83.645V78.0492H539.412V86.689ZM547.618 86.689H541.504V78.0492H547.618V79.6295H543.343V81.5077H547.527V83.088H543.343V85.0957H547.618V86.689ZM554.328 86.689L552.631 83.5931H551.284V86.689H549.444V78.0492H553.486C554.073 78.0492 554.587 78.1701 555.027 78.4119C555.468 78.645 555.804 78.9732 556.038 79.3963C556.271 79.8194 556.387 80.2987 556.387 80.8341C556.387 81.5422 556.202 82.1165 555.83 82.5569C555.468 82.9973 555.023 83.278 554.496 83.3988L556.439 86.689H554.328ZM554.509 80.8212C554.509 80.4671 554.384 80.1821 554.133 79.9662C553.892 79.7417 553.585 79.6295 553.214 79.6295H551.284V82.0129H553.214C553.585 82.0129 553.892 81.9049 554.133 81.689C554.384 81.4645 554.509 81.1752 554.509 80.8212ZM557.742 82.3755C557.742 81.4861 557.945 80.7046 558.351 80.031C558.765 79.3488 559.322 78.8264 560.022 78.4637C560.721 78.0924 561.494 77.9067 562.34 77.9067C563.178 77.9067 563.89 78.0794 564.478 78.4248C565.073 78.7702 565.553 79.2279 565.915 79.7979L564.387 80.6269C564.171 80.3074 563.882 80.0483 563.519 79.8497C563.165 79.6424 562.772 79.5388 562.34 79.5388C561.822 79.5388 561.356 79.664 560.941 79.9144C560.535 80.1562 560.216 80.493 559.983 80.9248C559.75 81.3566 559.633 81.8401 559.633 82.3755C559.633 82.9109 559.75 83.3945 559.983 83.8263C560.216 84.2581 560.535 84.5992 560.941 84.8496C561.356 85.0914 561.822 85.2123 562.34 85.2123C562.712 85.2123 563.061 85.1475 563.389 85.018C563.726 84.8885 563.998 84.733 564.206 84.5517V83.5025H561.9V81.9222H566.019V85.2253C565.561 85.7434 565.022 86.1449 564.4 86.4299C563.787 86.7149 563.1 86.8574 562.34 86.8574C561.494 86.8574 560.721 86.6717 560.022 86.3004C559.322 85.929 558.765 85.4023 558.351 84.7201C557.945 84.0379 557.742 83.2564 557.742 82.3755ZM569.707 86.689H567.868V78.0492H569.707V86.689ZM577.925 86.689H571.811V78.0492H577.925V79.6295H573.65V81.5077H577.834V83.088H573.65V85.0957H577.925V86.689ZM580.166 84.0724C580.494 84.4178 580.891 84.6985 581.358 84.9144C581.832 85.1303 582.351 85.2382 582.912 85.2382C583.387 85.2382 583.754 85.1432 584.013 84.9532C584.281 84.7633 584.414 84.5344 584.414 84.2667C584.414 83.9731 584.272 83.7529 583.987 83.6061C583.702 83.4507 583.262 83.3039 582.666 83.1657C581.992 83.0103 581.444 82.8548 581.021 82.6994C580.598 82.5439 580.226 82.2935 579.907 81.9481C579.596 81.594 579.44 81.1191 579.44 80.5232C579.44 80.0397 579.574 79.5992 579.842 79.202C580.11 78.8048 580.49 78.4939 580.982 78.2694C581.483 78.0362 582.061 77.9196 582.718 77.9196C584.091 77.9196 585.213 78.3212 586.085 79.1243L585.062 80.4714C584.725 80.1605 584.337 79.9274 583.896 79.772C583.465 79.6079 583.028 79.5258 582.588 79.5258C582.182 79.5258 581.867 79.6079 581.642 79.772C581.427 79.9274 581.319 80.139 581.319 80.4067C581.319 80.6744 581.452 80.873 581.72 81.0025C581.988 81.1234 582.428 81.2573 583.041 81.4041C583.698 81.5509 584.242 81.7106 584.674 81.8833C585.114 82.0474 585.49 82.3065 585.8 82.6605C586.12 83.0146 586.28 83.4852 586.28 84.0724C586.28 84.9014 585.982 85.5707 585.386 86.0802C584.799 86.5897 583.944 86.8444 582.821 86.8444C581.293 86.8444 580.071 86.3867 579.155 85.4714L580.166 84.0724Z" fill="black"/>
<rect x="453.625" y="68.7124" width="194.789" height="26.9532" rx="1.11915" stroke="black"/>
<path d="M514.722 120.691H512.869V113.671H510.343V112.051H517.234V113.671H514.722V120.691ZM523.686 120.691L521.989 117.595H520.642V120.691H518.802V112.051H522.844C523.431 112.051 523.945 112.172 524.385 112.414C524.825 112.647 525.162 112.975 525.395 113.399C525.629 113.822 525.745 114.301 525.745 114.836C525.745 115.544 525.559 116.119 525.188 116.559C524.825 116.999 524.381 117.28 523.854 117.401L525.797 120.691H523.686ZM523.867 114.823C523.867 114.469 523.742 114.184 523.491 113.968C523.249 113.744 522.943 113.632 522.572 113.632H520.642V116.015H522.572C522.943 116.015 523.249 115.907 523.491 115.691C523.742 115.467 523.867 115.177 523.867 114.823ZM535.571 120.691H533.563L533.019 119.202H529.159L528.615 120.691H526.595L529.937 112.051H532.242L535.571 120.691ZM532.514 117.608L531.089 113.645L529.652 117.608H532.514ZM536.758 120.691V112.051H540.164C541.062 112.051 541.857 112.233 542.548 112.595C543.239 112.949 543.778 113.455 544.167 114.111C544.555 114.767 544.75 115.523 544.75 116.378C544.75 117.233 544.555 117.988 544.167 118.645C543.778 119.292 543.239 119.797 542.548 120.16C541.857 120.514 541.062 120.691 540.164 120.691H536.758ZM540.164 119.072C540.717 119.072 541.196 118.951 541.602 118.709C542.017 118.468 542.332 118.144 542.548 117.738C542.764 117.323 542.872 116.87 542.872 116.378C542.872 115.583 542.634 114.936 542.159 114.435C541.684 113.925 541.019 113.671 540.164 113.671H538.597V119.072H540.164ZM552.558 120.691H546.444V112.051H552.558V113.632H548.283V115.51H552.467V117.09H548.283V119.098H552.558V120.691ZM557.027 118.256H553.918V116.857H557.027V118.256ZM558.242 116.378C558.242 115.523 558.436 114.759 558.824 114.085C559.213 113.403 559.748 112.872 560.431 112.492C561.122 112.103 561.894 111.909 562.749 111.909C563.613 111.909 564.386 112.103 565.068 112.492C565.759 112.872 566.298 113.403 566.687 114.085C567.076 114.759 567.27 115.523 567.27 116.378C567.27 117.233 567.076 118.001 566.687 118.683C566.298 119.357 565.759 119.888 565.068 120.277C564.386 120.657 563.613 120.847 562.749 120.847C561.894 120.847 561.122 120.657 560.431 120.277C559.748 119.888 559.213 119.357 558.824 118.683C558.436 118.001 558.242 117.233 558.242 116.378ZM565.379 116.378C565.379 115.842 565.271 115.359 565.055 114.927C564.839 114.495 564.528 114.158 564.122 113.917C563.725 113.666 563.267 113.541 562.749 113.541C562.231 113.541 561.774 113.666 561.376 113.917C560.979 114.158 560.672 114.495 560.457 114.927C560.241 115.359 560.133 115.842 560.133 116.378C560.133 116.913 560.241 117.397 560.457 117.829C560.672 118.26 560.979 118.601 561.376 118.852C561.774 119.094 562.231 119.214 562.749 119.214C563.267 119.214 563.725 119.094 564.122 118.852C564.528 118.601 564.839 118.26 565.055 117.829C565.271 117.397 565.379 116.913 565.379 116.378ZM570.789 120.691H568.949V112.051H575.063V113.632H570.789V115.51H574.973V117.09H570.789V120.691ZM578.577 120.691H576.738V112.051H582.852V113.632H578.577V115.51H582.761V117.09H578.577V120.691ZM584.941 118.075C585.269 118.42 585.666 118.701 586.133 118.917C586.608 119.132 587.126 119.24 587.687 119.24C588.162 119.24 588.529 119.145 588.788 118.955C589.056 118.765 589.19 118.537 589.19 118.269C589.19 117.975 589.047 117.755 588.762 117.608C588.477 117.453 588.037 117.306 587.441 117.168C586.768 117.012 586.219 116.857 585.796 116.702C585.373 116.546 585.002 116.296 584.682 115.95C584.371 115.596 584.216 115.121 584.216 114.525C584.216 114.042 584.35 113.601 584.617 113.204C584.885 112.807 585.265 112.496 585.757 112.272C586.258 112.038 586.837 111.922 587.493 111.922C588.866 111.922 589.989 112.323 590.861 113.126L589.837 114.474C589.501 114.163 589.112 113.93 588.672 113.774C588.24 113.61 587.804 113.528 587.363 113.528C586.957 113.528 586.642 113.61 586.418 113.774C586.202 113.93 586.094 114.141 586.094 114.409C586.094 114.677 586.228 114.875 586.495 115.005C586.763 115.126 587.204 115.259 587.817 115.406C588.473 115.553 589.017 115.713 589.449 115.886C589.889 116.05 590.265 116.309 590.576 116.663C590.895 117.017 591.055 117.487 591.055 118.075C591.055 118.904 590.757 119.573 590.161 120.082C589.574 120.592 588.719 120.847 587.597 120.847C586.068 120.847 584.846 120.389 583.931 119.474L584.941 118.075Z" fill="black"/>
<rect x="453.625" y="102.715" width="194.789" height="26.9532" rx="1.11915" stroke="black"/>
<line x1="392" y1="98.8594" x2="439" y2="98.8594" stroke="black"/>
</svg>
